<svg xmlns="http://www.w3.org/2000/svg" width="256" height="256" viewBox="0 0 256 256" fill="none">
  <defs>
    <linearGradient id="drop" x1="76" y1="40" x2="196" y2="220" gradientUnits="userSpaceOnUse">
      <stop stop-color="#38BDF8" />
      <stop offset="1" stop-color="#22C55E" />
    </linearGradient>
    <linearGradient id="ring" x1="34" y1="34" x2="222" y2="222" gradientUnits="userSpaceOnUse">
      <stop stop-color="rgba(56,189,248,0.95)" />
      <stop offset="1" stop-color="rgba(34,197,94,0.95)" />
    </linearGradient>
  </defs>

  <circle cx="128" cy="128" r="112" stroke="url(#ring)" stroke-width="14" opacity="0.9" />
  <circle cx="128" cy="128" r="98" stroke="rgba(255,255,255,0.16)" stroke-width="2" />

  <path
    d="M128 54c18 34 46 54 46 88a46 46 0 0 1-92 0c0-34 28-54 46-88Z"
    fill="url(#drop)"
    opacity="0.95"
  />

  <!-- simplified pump icon -->
  <g transform="translate(86 110)">
    <rect x="0" y="30" width="84" height="56" rx="14" fill="rgba(0,0,0,0.28)" stroke="rgba(255,255,255,0.22)" />
    <rect x="12" y="42" width="60" height="32" rx="10" fill="rgba(255,255,255,0.08)" />
    <circle cx="28" cy="58" r="9" fill="rgba(56,189,248,0.9)" />
    <circle cx="56" cy="58" r="9" fill="rgba(34,197,94,0.9)" />
    <path
      d="M18 30c0-12 10-20 22-20s22 8 22 20"
      stroke="rgba(255,255,255,0.55)"
      stroke-width="4"
      stroke-linecap="round"
    />
  </g>

  <path
    d="M76 182c14 10 32 16 52 16s38-6 52-16"
    stroke="rgba(255,255,255,0.6)"
    stroke-width="6"
    stroke-linecap="round"
    opacity="0.95"
  />
</svg>

